<?xml version="1.0" standalone="no"?><!DOCTYPE svg PUBLIC "-//W3C//DTD SVG 1.1//EN" "http://www.w3.org/Graphics/SVG/1.1/DTD/svg11.dtd"><svg class="icon" width="200px" height="200.00px" viewBox="0 0 1024 1024" version="1.1" xmlns="http://www.w3.org/2000/svg"><path d="M727.466667 966.4h-136.533334c-14.933333 0-25.6-12.8-25.6-25.6V654.933333v-8.533333h-106.666666v294.4c0 14.933333-12.8 25.6-25.6 25.6h-136.533334c-70.4 0-128-64-128-140.8v-234.666667h-21.333333c-36.266667 0-66.133333-17.066667-78.933333-49.066666-10.666667-25.6-8.533333-66.133333 27.733333-106.666667L418.133333 98.133333c25.6-25.6 59.733333-40.533333 93.866667-40.533333 36.266667 0 70.4 14.933333 93.866667 40.533333l322.133333 339.2c38.4 40.533333 40.533333 81.066667 27.733333 106.666667-12.8 32-42.666667 49.066667-78.933333 49.066667h-21.333333v234.666666c0 76.8-55.466667 138.666667-128 138.666667zM618.666667 913.066667h110.933333c46.933333 0 74.666667-44.8 74.666667-87.466667V565.333333c0-14.933333 12.8-25.6 25.6-25.6h46.933333c14.933333 0 25.6-6.4 29.866667-17.066666 0-2.133333 8.533333-21.333333-19.2-49.066667l-320-339.2c-29.866667-32-81.066667-32-110.933334 0L134.4 473.6c-25.6 27.733333-19.2 46.933333-19.2 49.066667 4.266667 12.8 14.933333 17.066667 29.866667 17.066666H192c14.933333 0 25.6 12.8 25.6 25.6v260.266667c0 42.666667 27.733333 87.466667 74.666667 87.466667H405.333333V654.933333c0-17.066667 0-36.266667 12.8-49.066666 12.8-12.8 32-12.8 38.4-12.8h108.8c6.4 0 25.6 0 38.4 12.8 12.8 12.8 12.8 32 12.8 49.066666v258.133334z" fill="#1296db" /></svg>