<?xml version="1.0" standalone="no"?><!DOCTYPE svg PUBLIC "-//W3C//DTD SVG 1.1//EN" "http://www.w3.org/Graphics/SVG/1.1/DTD/svg11.dtd"><svg class="icon" width="200px" height="200.00px" viewBox="0 0 1024 1024" version="1.1" xmlns="http://www.w3.org/2000/svg"><path d="M170.88 192l254.08 265.92a32 32 0 0 1-46.4 44.16l-305.6-320A32 32 0 0 1 96 128h800a32 32 0 0 1 23.04 54.08l-305.6 320a32 32 0 0 1-46.4-44.16L821.12 192z" fill="#2c2c2c" /><path d="M384 480a32 32 0 0 1 64 0v320a32 32 0 0 1-64 0z m192 0a32 32 0 0 1 64 0v448a32 32 0 0 1-64 0z" fill="#2c2c2c" /></svg>