<?xml version="1.0" standalone="no"?><!DOCTYPE svg PUBLIC "-//W3C//DTD SVG 1.1//EN" "http://www.w3.org/Graphics/SVG/1.1/DTD/svg11.dtd"><svg class="icon" width="200px" height="200.00px" viewBox="0 0 1024 1024" version="1.1" xmlns="http://www.w3.org/2000/svg"><path d="M932.7 501.1c-15.1 0-27.3 12.2-27.3 27.3v333.3c0 24.1-19.6 43.7-43.7 43.7H162.3c-24.1 0-43.7-19.6-43.7-43.7V162.3c0-24.1 19.6-43.7 43.7-43.7h333.3c15.1 0 27.3-12.2 27.3-27.3S510.7 64 495.6 64H162.3C108.1 64 64 108.1 64 162.3v699.3c0 54.2 44.1 98.3 98.3 98.3h699.3c54.2 0 98.3-44.1 98.3-98.3V528.4c0.1-15.1-12.2-27.3-27.2-27.3z" fill="#515151" /><path d="M376.8 531.5l-18.5 107.4c-1.4 7.9 1.4 15.3 6.5 20.3 5.1 5.1 12.5 7.8 20.4 6.5l107.4-18.5 0.9-0.9-115.8-115.7-0.9 0.9zM513.1 626.6L936 203.7c31.9-31.9 32-83.8 0-115.7-31.9-32-83.7-32-115.7 0L397.4 510.9l115.7 115.7z m326.5-519.4c21.3-21.3 55.9-21.3 77.1 0 21.3 21.3 21.3 55.9 0 77.1l-28.2 28.2-77.1-77.1 28.2-28.2z" fill="#515151" /></svg>