<?xml version="1.0" standalone="no"?><!DOCTYPE svg PUBLIC "-//W3C//DTD SVG 1.1//EN" "http://www.w3.org/Graphics/SVG/1.1/DTD/svg11.dtd"><svg class="icon" width="200px" height="200.00px" viewBox="0 0 1024 1024" version="1.1" xmlns="http://www.w3.org/2000/svg"><path d="M718.284715 649.0207c-69.428256 0-130.494053-30.877241-143.04388-37.686321-11.215436-4.472871-80.256882-31.083949-135.622864-31.083949-50.164516 0-116.052133 22.899546-137.195685 31.737842-10.623965 4.435009-22.728654 3.267417-32.32522-3.12927-9.558703-6.392594-15.298428-17.124006-15.298428-28.608571L254.798639 133.231397c0-13.996782 8.493441-26.580379 21.424962-31.841196 3.709485-1.515516 91.670839-36.930097 166.974919-36.930097 75.92318 0 157.381423 35.831067 160.818709 37.341466 1.276063 0.551562 2.51324 1.207501 3.715625 1.925862 0.415462 0.23843 50.482765 29.503964 107.697861 29.503964 56.944943 0 105.530498-29.059849 106.015545-29.367865 10.691503-6.399757 23.892153-6.668886 34.759665-0.581238 10.799974 6.120394 17.541515 17.530258 17.541515 29.949103l0 447.019033c0 11.659551-5.919826 22.4892-15.683191 28.844955C855.588871 610.747002 795.650757 649.0207 718.284715 649.0207L718.284715 649.0207 718.284715 649.0207zM439.616948 511.479137c74.072019 0 160.037926 35.523051 163.679873 37.032428 1.309832 0.552585 2.580778 1.167592 3.817955 1.888 0.484024 0.278339 53.576219 29.850865 111.168915 29.850865 36.519752 0 68.531839-12.036128 86.684268-20.563338L804.96796 186.217169c-24.415063 8.389064-55.562457 15.786545-89.539292 15.786545-69.599148 0-128.46586-31.015388-140.77521-37.962613-10.590196-4.473895-75.234495-30.809703-131.455961-30.809703-42.016953 0-91.847871 14.612813-119.626541 24.073278L323.570955 531.764136C355.720166 521.930163 399.42148 511.479137 439.616948 511.479137L439.616948 511.479137 439.616948 511.479137zM529.885857 958.499194 151.639141 958.499194 151.639141 98.848309c0-18.983353 15.403828-34.388205 34.387181-34.388205 18.97312 0 34.384112 15.404852 34.384112 34.388205l0 790.869359 309.475424 0c19.013029 0 34.384112 15.375176 34.384112 34.392298C564.269969 943.124018 548.898887 958.499194 529.885857 958.499194L529.885857 958.499194 529.885857 958.499194zM186.027345 958.499194l-67.705008 0c-18.983353 0-34.389228-15.375176-34.389228-34.388205 0-19.012006 15.405875-34.387181 34.389228-34.387181l67.705008 0c18.978237 0 34.384112 15.375176 34.384112 34.387181C220.410434 943.124018 205.004559 958.499194 186.027345 958.499194L186.027345 958.499194 186.027345 958.499194zM186.027345 958.499194" /></svg>