<?xml version="1.0" standalone="no"?><!DOCTYPE svg PUBLIC "-//W3C//DTD SVG 1.1//EN" "http://www.w3.org/Graphics/SVG/1.1/DTD/svg11.dtd"><svg class="icon" width="200px" height="200.00px" viewBox="0 0 1024 1024" version="1.1" xmlns="http://www.w3.org/2000/svg"><path d="M511.999431 0.001138a511.999431 511.999431 0 1 0 511.999431 511.999431 510.975432 510.975432 0 0 0-511.999431-511.999431zM312.888541 397.426474A184.774906 184.774906 0 0 1 511.999431 194.276477a187.733125 187.733125 0 0 1 199.11089 201.215777 168.163369 168.163369 0 0 1-68.266591 119.466534c-73.955473 55.921716-91.022121 52.053275-91.022121 136.021182H455.110605a179.086023 179.086023 0 0 1 113.777652-193.422007c28.444413-14.961761 39.822178-31.687076 39.822178-87.551903A83.114574 83.114574 0 0 0 517.688314 280.463048c-51.199943 0-102.399886 9.386656-102.399887 115.541205zM455.110605 729.031439h96.711004v100.636332H455.110605v-100.636332z m0 0" /></svg>