<?xml version="1.0" standalone="no"?><!DOCTYPE svg PUBLIC "-//W3C//DTD SVG 1.1//EN" "http://www.w3.org/Graphics/SVG/1.1/DTD/svg11.dtd"><svg class="icon" width="200px" height="200.00px" viewBox="0 0 1024 1024" version="1.1" xmlns="http://www.w3.org/2000/svg"><path d="M904.438 199.443c-73.793 0-122.989-49.196-122.989-122.989l-270.576 24.599-270.577-24.599c0 73.792-49.194 122.989-122.988 122.989-49.196 565.75 393.565 762.532 393.565 762.532s442.761-196.781 393.564-762.532zM592.655 445.071h97.866v87.589h-129.146v38.167h129.147v88.267h-129.147v106.098h-101.148v-106.097h-133.893v-88.268h133.893v-38.167h-133.893v-87.589h101.402l-139.316-239.312h115.381c0 0 88.482 163.352 108.63 203.72 6.429-12.986 109.391-203.72 109.391-203.72h111.504l-140.672 239.311z" fill="#515151" /></svg>