<?xml version="1.0" standalone="no"?><!DOCTYPE svg PUBLIC "-//W3C//DTD SVG 1.1//EN" "http://www.w3.org/Graphics/SVG/1.1/DTD/svg11.dtd"><svg class="icon" width="200px" height="200.00px" viewBox="0 0 1024 1024" version="1.1" xmlns="http://www.w3.org/2000/svg"><path d="M959.971 505.949C956.701 258.637 753.396 60.73 506.011 64.04 258.632 67.344 60.721 270.606 64.029 518.048c3.308 247.265 206.572 445.236 453.955 441.911 247.384-3.308 445.288-206.568 441.987-454.01zM470.389 285.066c0.02-30.225 25.342-71.721 85.291-71.721 45.524 0 58.963 26.392 58.963 56.621 0 37.758-30.247 72.66-81.811 72.66-43.139 0-63.663-21.715-62.443-57.56zM438.9 792.003c-31.123 0-53.911-18.9-32.151-101.973l35.693-147.258c6.185-23.619 7.21-33.067 0-33.067-9.303 0-49.727 16.319-73.62 32.38l-15.533-25.471c75.733-63.207 162.796-100.308 200.106-100.308 31.103 0 36.268 36.823 20.737 93.437l-40.894 154.859c-7.213 27.372-4.097 36.82 3.114 36.82 9.301 0 39.936-11.309 70.019-34.966l17.574 23.619C550.366 763.648 470.068 792.003 438.9 792.003z" fill="#666666" /></svg>