<?xml version="1.0" standalone="no"?><!DOCTYPE svg PUBLIC "-//W3C//DTD SVG 1.1//EN" "http://www.w3.org/Graphics/SVG/1.1/DTD/svg11.dtd"><svg class="icon" width="200px" height="200.00px" viewBox="0 0 1024 1024" version="1.1" xmlns="http://www.w3.org/2000/svg"><path d="M 511.999 2.38 c -281.456 0 -509.62 228.164 -509.62 509.62 c 0 281.454 228.164 509.618 509.62 509.618 c 281.454 0 509.618 -228.164 509.618 -509.618 c 0.001 -281.456 -228.164 -509.62 -509.618 -509.62 Z M 808.447 316.839 h -30.756 l -30.683 459.493 c 0 38.192 -27.941 69.17 -62.402 69.17 h -343.261 c -34.463 0 -62.402 -30.977 -62.402 -69.17 l -31.251 -459.493 h -32.139 v -34.585 h 156.03 v -34.587 c 0 -38.192 27.939 -69.171 62.401 -69.171 h 156.03 c 34.463 0 62.402 30.978 62.402 69.171 v 34.587 h 156.03 v 34.585 Z"  /><path d="M 310.117 774.503 l 0.023 0.915 v 0.914 c 0 19.046 14.007 34.587 31.202 34.587 h 343.261 c 17.217 0 31.202 -15.54 31.202 -34.587 v -0.914 l 0.049 -0.89 l 30.607 -457.691 l -467.52 -0.001 l 31.175 457.665 Z M 621.486 384.923 l 31.152 2.174 l -31.472 355.737 l -31.152 -2.174 l 31.472 -355.737 Z M 496.386 386.011 h 31.226 v 355.739 h -31.226 v -355.739 Z M 402.759 385.985 l 31.916 354.65 l -31.125 2.198 l -31.942 -354.674 l 31.152 -2.174 Z"  /><path d="M 621.215 247.668 c 0 -19.095 -13.981 -34.585 -31.201 -34.585 l -156.03 -0.001 c -17.194 0 -31.201 15.49 -31.201 34.585 v 34.587 h 218.431 l 0.001 -34.587 Z"  /></svg>