<?xml version="1.0" standalone="no"?><!DOCTYPE svg PUBLIC "-//W3C//DTD SVG 1.1//EN" "http://www.w3.org/Graphics/SVG/1.1/DTD/svg11.dtd"><svg class="icon" width="200px" height="200.00px" viewBox="0 0 1024 1024" version="1.1" xmlns="http://www.w3.org/2000/svg"><path d="M748.725516 382.877177 296.794613 382.877177l0-86.081541c0-108.191094 91.462085-193.011922 208.480218-193.684234 114.327862 0.630357 200.409402 83.685981 200.409402 193.684234l0 43.041282c0 11.894911 9.625218 21.520129 21.520129 21.520129s21.520129-9.625218 21.520129-21.520129l0-43.041282c0-134.082788-103.903441-235.422847-242.10606-236.725516-0.925069 0-1.765203 0-2.690272 0C363.41594 61.371766 253.753331 164.897607 253.753331 296.794613l0 88.25709c-72.810283 10.555403-129.122823 72.78163-129.122823 148.468426l0 279.766798c0 83.055624 67.588351 150.643975 150.643975 150.643975l473.451032 0c83.055624 0 150.643975-67.588351 150.643975-150.643975L899.369491 533.520129C899.368468 450.464505 831.78114 382.877177 748.725516 382.877177zM856.328209 813.286927c0 59.349713-48.25298 107.602693-107.602693 107.602693L275.274484 920.889621c-59.349713 0-107.602693-48.25298-107.602693-107.602693L167.671791 533.520129c0-59.349713 48.25298-107.602693 107.602693-107.602693l473.451032 0c59.349713 0 107.602693 48.25298 107.602693 107.602693L856.328209 813.286927z" fill="#dbdbdb" /><path d="M512 512c-71.202669 0-129.122823 57.920154-129.122823 129.122823 0 63.981197 46.88175 116.849288 108.033505 126.992299-0.078795 0.735757-0.430812 1.3743-0.430812 2.130524l0 64.561411c0 11.894911 9.625218 21.520129 21.520129 21.520129s21.520129-9.625218 21.520129-21.520129L533.520129 770.245645c0-0.756223-0.357134-1.394766-0.430812-2.130524 61.146639-10.143011 108.033505-63.011102 108.033505-126.992299C641.122823 569.920154 583.202669 512 512 512zM512 727.205387c-47.454802 0-86.081541-38.627762-86.081541-86.082564s38.627762-86.081541 86.081541-86.081541 86.081541 38.627762 86.081541 86.081541S559.453778 727.205387 512 727.205387z" fill="#dbdbdb" /></svg>