<?xml version="1.0" standalone="no"?><!DOCTYPE svg PUBLIC "-//W3C//DTD SVG 1.1//EN" "http://www.w3.org/Graphics/SVG/1.1/DTD/svg11.dtd"><svg class="icon" width="200px" height="171.52px" viewBox="0 0 1194 1024" version="1.1" xmlns="http://www.w3.org/2000/svg"><path d="M1109.333333 451.072a360.789333 360.789333 0 0 0-170.752-42.752c-204.288 0-369.834667 169.813333-369.834666 379.221333 0 37.717333 5.376 74.069333 15.36 108.458667H85.333333a85.333333 85.333333 0 0 1-85.333333-85.333333v-682.666667a85.333333 85.333333 0 0 1 85.333333-85.333333h938.666667a85.333333 85.333333 0 0 1 85.333333 85.333333v323.072zM191.573333 155.050667c104.704 134.485333 226.218667 203.776 362.666667 204.373333 136.789333 0.597333 258.474667-68.864 363.178667-204.544a42.666667 42.666667 0 1 0-67.498667-52.053333C760.32 218.624 662.528 274.432 554.666667 274.005333c-108.117333-0.426667-206.08-56.32-295.68-171.52a42.666667 42.666667 0 1 0-67.413334 52.48zM1111.722667 755.2c0 8.448-0.853333 16.725333-1.792 24.917333l55.466666 42.410667c5.034667 3.925333-4.437333 46.08-16.042666 65.706667-11.605333 19.456-43.52 47.104-49.493334 44.885333l-65.450666-25.770667c-13.653333 10.24-28.586667 18.773333-44.458667 25.258667l-9.898667 67.84c-1.024 5.973333-45.226667 16.896-65.621333 16.896s-64.597333-10.922667-65.706667-16.896l-9.813333-67.84a201.045333 201.045333 0 0 1-44.458667-25.258667l-65.536 25.770667c-5.973333 2.304-28.757333-14.165333-45.397333-38.570667-16.64-24.32-25.088-68.266667-20.138667-72.021333l55.466667-42.410667a195.584 195.584 0 0 1-1.706667-24.917333c0-8.533333 0.682667-16.810667 1.706667-25.002667l-55.466667-42.325333c-4.949333-4.010667 0.853333-44.629333 13.226667-64.768 12.288-20.138667 46.250667-48.128 52.309333-45.824l65.536 25.685333c13.653333-10.24 28.501333-18.773333 44.373334-25.173333l9.898666-67.84c1.109333-5.973333 36.266667-18.517333 65.706667-18.517333 29.525333 0 64.597333 12.458667 65.706667 18.517333l9.898666 67.84c16.042667 6.485333 30.890667 15.104 44.458667 25.173333l65.536-25.685333c5.973333-2.304 39.509333 26.453333 51.114667 45.824 11.52 19.456 19.370667 60.928 14.421333 64.768l-55.637333 42.325333c1.024 8.192 1.792 16.554667 1.792 25.002667zM914.432 844.8c50.858667 0 92.074667-40.106667 92.074667-89.6 0-49.493333-41.216-89.6-92.16-89.6-50.858667 0-92.074667 40.106667-92.074667 89.6 0 49.493333 41.216 89.6 92.16 89.6z" /></svg>