<?xml version="1.0" standalone="no"?><!DOCTYPE svg PUBLIC "-//W3C//DTD SVG 1.1//EN" "http://www.w3.org/Graphics/SVG/1.1/DTD/svg11.dtd"><svg class="icon" width="200px" height="200.00px" viewBox="0 0 1024 1024" version="1.1" xmlns="http://www.w3.org/2000/svg"><path d="M906.088008 1023.809665c-262.214027 0-524.07092 0-786.823206 0 23.830755-267.401166 47.63388-534.497387 71.464635-801.890366 47.958268 0 95.151104 0 142.937456 0 0.586354-8.755408 1.030469-17.20587 1.736551-25.634844 4.51585-53.915957 24.074302-101.514021 60.926628-141.348262C424.43313 24.559349 459.074092 5.952572 500.686838 2.330068c40.582277-3.5345 76.878948 8.42488 108.612697 33.607422 42.141796 33.440623 66.577325 77.725222 76.949556 129.98854 3.278673 16.514115 4.9088 33.353642 7.303336 50.042743 0.285502 1.997494 0.629333 3.986801 1.025353 6.473435 2.276856 0 4.27742 0 6.28003 0 42.801828 0 85.602633 0.073678 128.403438-0.105401 4.768607-0.020466 6.302543 1.267876 6.721075 6.127558 3.892657 45.164642 8.046257 90.306772 12.173251 135.450948 3.924379 42.938951 7.983835 85.86767 11.840676 128.813784 3.308349 36.836977 6.393617 73.694419 9.619078 110.537536 3.599991 41.088814 7.246031 82.173534 10.874675 123.259278 3.536546 40.066531 6.847965 80.155575 10.67513 120.195499 4.751211 49.701982 10.06524 99.349729 14.799054 149.053758C906.829905 1004.877477 906.088008 1014.132258 906.088008 1023.809665zM351.481631 221.458811c109.996207 0 219.569788 0 329.494363 0 0-1.422396 0.122797-2.585895-0.01842-3.715625-1.927909-15.371082-3.012613-30.913057-6.006807-46.076408-9.305947-47.116087-30.877241-87.691201-68.170612-118.583792-39.488363-32.709983-84.306104-42.650379-133.523039-26.386974-36.481889 12.05557-62.961984 37.117362-84.147492 68.37425C363.337657 133.092227 356.392478 176.712701 351.481631 221.458811zM516.169461 751.96428c-2.026146 11.142781-3.960195 21.500687-5.789866 31.878035-6.989181 39.646975-25.795503 72.15639-58.242496 96.401584-5.17179 3.864004-10.552334 7.450692-16.139585 11.379165 6.210445 9.620102 12.361539 19.146059 18.562774 28.751834 1.170662-0.580215 1.950422-0.908696 2.672876-1.335415 23.733541-14.005992 43.407626-32.269961 58.372455-55.512315 16.876366-26.208918 24.087605-55.745628 29.577642-85.857437 1.546216-8.479115 2.622734-17.045211 3.901867-25.476231 27.900443 0 55.285141 0 83.279728 0 0 55.406914 0 110.530372 0 165.837003 11.109012 0 21.609157 0 32.759101 0 0-55.404867 0-110.537536 0-166.230975 21.526269 0 42.407855 0 63.263859 0 0-10.703783 0-20.836561 0-31.651884-21.23872 0-42.085514 0-62.948681 0 0-37.439704 0-74.188676 0-111.607914 18.093077 0 35.874045 0 53.394071 0 0-10.803044 0-20.927635 0-31.640628-21.772886 0-43.100634 0-65.106834 0 14.941294-26.879184 27.934213-53.716412 38.226626-82.156138-10.827603-3.858888-21.005406-7.486508-31.354102-11.174504-0.827855 2.128477-1.456165 3.692089-2.046612 5.27105-10.692526 28.574802-22.886243 56.471153-37.196157 83.442434-1.937119 3.64911-4.016477 4.995781-8.188496 4.981455-47.744397-0.157589-95.490841-0.100284-143.237285-0.100284-1.974981 0-3.950985 0-6.02625 0 0 10.907421 0 21.037129 0 31.680537 18.684548 0 37.017078 0 54.896284 0 0 37.401842 0 74.27975 0 111.747083-21.694091 0-42.556235 0-63.295582 0 0 10.748808 0 20.895913 0 31.372521C475.600487 751.96428 495.33597 751.96428 516.169461 751.96428zM304.498574 771.550361c19.422352-7.217379 38.314631-14.238282 57.754379-21.462824 0 1.952468 0 3.604084 0 5.255701 0 36.320207 0.001023 72.63939-0.00307 108.959597-0.001023 1.533936-0.002047 3.070942-0.086981 4.601808-0.548492 9.838066-5.928013 15.398712-15.835663 15.808034-5.263887 0.217964-10.561543-0.199545-15.83771-0.457418-6.764054-0.330528-13.522991-0.788969-20.815071-1.224898 2.219551 10.465352 4.237511 20.438495 6.575766 30.335912 0.242524 1.027399 2.379187 2.286066 3.64297 2.293229 14.491039 0.086981 29.007661 0.443092 43.470047-0.24764 18.523889-0.883113 29.938869-11.449773 33.04665-29.656437 0.683569-4.002151 0.665149-8.153704 0.669242-12.236696 0.042979-44.844348 0.065492-89.689718-0.048095-134.536113-0.00921-3.542686 1.011027-5.369288 4.319375-6.943133 9.374508-4.457522 18.222013-10.126638 27.804253-14.017248 12.1886-4.947685 17.705244-12.599969 15.254425-25.981744-0.971118-5.302773-0.158612-10.930957-0.158612-16.909112-16.092513 8.609075-31.248701 16.718777-46.680159 24.973788 0-31.741935 0-62.33265 0-93.481068 16.055674 0 31.654954 0 47.171346 0 0-11.021008 0-21.473057 0-32.490995-16.054651 0-31.664164 0-47.845705 0 0-28.607548 0-56.644091 0-84.775802-11.755742 0-22.917966 0-34.625612 0 0 28.358885 0 56.411801 0 85.037768-20.064988 0-39.58967 0-59.376319 0 0 11.04352 0 21.50478 0 32.531927 19.821441 0 39.33896 0 58.756195 0 0.281409 1.030469 0.529049 1.511423 0.529049 1.992377 0.034792 34.44244 0.090051 68.885903-0.071631 103.33039-0.007163 1.435699-1.75497 3.587712-3.194762 4.170996-7.881504 3.194762-15.85306 6.203282-23.919782 8.898671-12.717649 4.247744-25.535583 8.194636-38.896892 12.45466C298.836621 748.781798 301.564755 759.75164 304.498574 771.550361zM518.174118 484.938668c-10.465352 5.090948-19.558451 9.513678-28.051893 13.643742 15.97995 25.359574 31.628348 50.190099 47.473221 75.337849 8.553817-4.218068 17.472953-8.619308 27.606755-13.617136C549.354258 534.905686 533.899264 510.138606 518.174118 484.938668zM642.068869 359.183546c9.812483-20.545942 19.464307-40.757263 29.170366-61.078077-20.606317-4.341888-36.981263 4.012384-43.37181 21.760606C622.181937 335.657736 627.806028 351.662245 642.068869 359.183546zM651.002332 365.404224c20.276812 5.474688 37.231973-3.388167 43.534516-22.060435 5.284353-15.658631-0.737804-32.769334-13.658068-38.120203C671.000805 325.119729 661.114644 345.034291 651.002332 365.404224zM362.067734 297.964252c9.827833 20.497846 19.634176 40.953737 29.513174 61.556984 14.609743-13.133112 17.778922-30.359448 8.80555-45.86663C392.685056 300.345486 375.783107 293.301046 362.067734 297.964252zM346.335425 307.08191c-14.19735 12.476149-15.598256 32.392758-3.64911 47.590901 9.077749 11.545964 23.606651 15.959483 32.396851 9.709129C365.572558 345.422124 356.04967 326.44184 346.335425 307.08191z" fill="#515151" /><path d="M631.808178 720.072943c-26.776853 0-53.131081 0-79.30623 0 0-37.122479 0-73.975828 0-111.096261 26.824949 0 52.967352 0 79.30623 0C631.808178 646.159536 631.808178 683.141822 631.808178 720.072943z" fill="#515151" /></svg>