<?xml version="1.0" standalone="no"?><!DOCTYPE svg PUBLIC "-//W3C//DTD SVG 1.1//EN" "http://www.w3.org/Graphics/SVG/1.1/DTD/svg11.dtd"><svg class="icon" width="200px" height="200.00px" viewBox="0 0 1024 1024" version="1.1" xmlns="http://www.w3.org/2000/svg"><path d="M515.025455 532.712727a23.272727 23.272727 0 0 1-23.272728-23.272727V78.429091a23.272727 23.272727 0 1 1 46.545455 0v431.010909a23.272727 23.272727 0 0 1-23.272727 23.272727z" fill="#bfbfbf" /><path d="M667.694545 179.898182a23.272727 23.272727 0 0 1-12.334545-3.490909L553.890909 112.64a73.774545 73.774545 0 0 0-77.963636 0L374.690909 176.407273a23.272727 23.272727 0 0 1-25.6-39.563637l101.469091-63.534545a120.785455 120.785455 0 0 1 127.301818 0l101.469091 63.534545a23.272727 23.272727 0 0 1-12.334545 43.054546zM852.48 979.083636h-674.909091a116.363636 116.363636 0 0 1-116.363636-116.363636v-442.181818a116.363636 116.363636 0 0 1 116.363636-116.363637h150.807273a23.272727 23.272727 0 0 1 0 46.545455H177.570909a69.818182 69.818182 0 0 0-69.818182 69.818182v442.181818a69.818182 69.818182 0 0 0 69.818182 69.818182h674.909091a69.818182 69.818182 0 0 0 69.818182-69.818182v-442.181818a69.818182 69.818182 0 0 0-69.818182-69.818182h-150.574545a23.272727 23.272727 0 0 1 0-46.545455h150.574545a116.363636 116.363636 0 0 1 116.363636 116.363637v442.181818a116.363636 116.363636 0 0 1-116.363636 116.363636z" fill="#bfbfbf" /></svg>