<?xml version="1.0" standalone="no"?><!DOCTYPE svg PUBLIC "-//W3C//DTD SVG 1.1//EN" "http://www.w3.org/Graphics/SVG/1.1/DTD/svg11.dtd"><svg class="icon" width="200px" height="181.40px" viewBox="0 0 1129 1024" version="1.1" xmlns="http://www.w3.org/2000/svg"><path d="M932.681688 1024H196.935576A197.260552 197.260552 0 0 1 0 827.064424V196.935576A197.260552 197.260552 0 0 1 196.935576 0H932.681688a197.260552 197.260552 0 0 1 196.935576 196.935576v630.128848a197.260552 197.260552 0 0 1-196.935576 196.935576zM196.935576 32.49762A164.762932 164.762932 0 0 0 32.49762 196.935576v630.128848a164.762932 164.762932 0 0 0 164.437956 164.437956H932.681688a164.762932 164.762932 0 0 0 164.437957-164.437956V196.935576A164.762932 164.762932 0 0 0 932.681688 32.49762z" fill="#bfbfbf" /><path d="M1129.617264 682.450016H670.750873a120.891146 120.891146 0 0 1-120.56617-120.56617V422.469057a120.891146 120.891146 0 0 1 120.56617-120.566169h458.866391zM670.750873 335.05046A88.06855 88.06855 0 0 0 582.682323 422.469057v139.739766a88.06855 88.06855 0 0 0 88.06855 87.743573h426.368772v-314.901936z" fill="#bfbfbf" /><path d="M686.999683 491.039035m-43.221835 0a43.221834 43.221834 0 1 0 86.443669 0 43.221834 43.221834 0 1 0-86.443669 0Z" fill="#bfbfbf" /><path d="M686.999683 557.009203a64.99524 64.99524 0 1 1 64.995239-64.995239 64.99524 64.99524 0 0 1-64.995239 64.995239z m0-86.443668a20.4735 20.4735 0 1 0 20.4735 20.4735 20.4735 20.4735 0 0 0-20.4735-20.4735z" fill="#bfbfbf" /></svg>