<?xml version="1.0" standalone="no"?><!DOCTYPE svg PUBLIC "-//W3C//DTD SVG 1.1//EN" "http://www.w3.org/Graphics/SVG/1.1/DTD/svg11.dtd"><svg class="icon" width="200px" height="200.00px" viewBox="0 0 1024 1024" version="1.1" xmlns="http://www.w3.org/2000/svg"><path d="M257.770496 440.95488l-76.479488 0c-18.614272 0-33.708032 15.39584-33.708032 34.39616 0 19.0208 15.09376 34.41664 33.708032 34.41664l76.479488 0c18.614272 0 33.708032-15.39584 33.708032-34.41664C291.478528 456.35072 276.385792 440.95488 257.770496 440.95488zM945.52064 62.976 78.47936 62.976C35.135488 62.976 0 98.850816 0 143.101952l0 735.74912C0 923.101184 35.135488 958.976 78.47936 958.976L945.52064 958.976c43.343872 0 78.47936-35.874816 78.47936-80.124928L1024 143.101952C1024 98.850816 988.864512 62.976 945.52064 62.976zM437.937152 121.57952l189.761536 0 0 444.688384-85.833728-39.499776c-3.395584-1.376256-6.8864-2.1248-10.344448-2.333696-0.113664 0-0.238592 0-0.354304-0.02048-0.396288-0.021504-0.781312-0.021504-1.16736-0.041984l-0.791552 0c-0.238592 0.02048-0.479232 0.02048-0.729088 0.02048-0.405504 0-0.812032 0.041984-1.21856 0.063488-0.093184 0-0.197632 0-0.30208 0.021504-3.458048 0.27136-6.936576 1.061888-10.32192 2.499584l-78.698496 31.520768L437.937152 121.57952zM55.979008 152.538112c0-13.8752 11.010048-33.874944 24.594432-33.874944l298.530816 0 0 196.104192L55.979008 314.76736 55.979008 152.538112zM965.167104 872.33024c0 13.8752-19.605504 32.416768-33.18784 32.416768L81.999872 904.747008c-13.58336 0-24.593408-11.249664-24.593408-25.104384L57.406464 373.392384l321.697792 0 0 227.291136c-0.531456 5.438464 0.197632 6.687744 2.374656 12.10368 7.083008 17.562624 18.208768 25.959424 35.417088 18.729984l112.874496-45.8752 113.583104 50.040832c17.334272 6.959104 36.895744-1.750016 43.708416-19.436544 1.813504-4.728832 2.531328-3.771392 2.281472-8.542208l0.064512-0.021504L689.408 377.767936l275.760128 0L965.168128 872.33024zM965.167104 316.24704 689.406976 316.24704l0-193.20832 242.572288 0c13.58336 0 33.18784 21.479424 33.18784 35.33312L965.167104 316.24704z" fill="#bfbfbf" /></svg>