<?xml version="1.0" standalone="no"?><!DOCTYPE svg PUBLIC "-//W3C//DTD SVG 1.1//EN" "http://www.w3.org/Graphics/SVG/1.1/DTD/svg11.dtd"><svg class="icon" width="200px" height="200.00px" viewBox="0 0 1024 1024" version="1.1" xmlns="http://www.w3.org/2000/svg"><path d="M600.064 814.384a15.952 15.952 0 0 1-7.568-1.904l-192.224-103.184-199.232 101.744a16.032 16.032 0 0 1-22.848-17.92l48.704-207.312-157.232-145.168a16.032 16.032 0 0 1 9.024-27.664l222.64-25.632 101.328-191.712a15.84 15.84 0 0 1 14.592-8.512 16 16 0 0 1 14.096 9.312l88.208 191.84 220.336 27.312a15.968 15.968 0 0 1 8.48 27.984l-167.392 144.288 34.336 204.768a16 16 0 0 1-14.96 21.728c-0.064 0.032-0.192 0.032-0.288 0.032z m-199.6-139.152c2.608 0 5.2 0.64 7.568 1.904l170.848 91.712-30.96-184.56a16 16 0 0 1 5.328-14.768l146.88-126.608-193.36-23.968a16 16 0 0 1-12.576-9.184l-78.4-170.496-90.128 170.512a16 16 0 0 1-12.32 8.416L117.008 440.816l138.464 127.84a15.952 15.952 0 0 1 4.72 15.408l-42.944 182.784 175.952-89.856a15.744 15.744 0 0 1 7.264-1.76z" fill="#bfbfbf" /><path d="M831.456 776.112a15.952 15.952 0 0 1-7.568-1.904L624.32 667.072a15.984 15.984 0 0 1-6.528-21.664 15.968 15.968 0 0 1 21.664-6.528l170.848 91.68-30.96-184.544a16 16 0 0 1 5.328-14.768l146.88-126.608-193.36-23.968a15.936 15.936 0 0 1-12.56-9.2l-78.384-170.496-66.896 126.528a16 16 0 1 1-28.288-14.96l82.032-155.168c2.832-5.376 8.352-9.056 14.576-8.512 6.096 0.16 11.568 3.776 14.096 9.312l88.208 191.84 220.336 27.312a15.968 15.968 0 0 1 8.48 27.984L812.4 549.6l34.864 207.84a16.048 16.048 0 0 1-15.808 18.672z" fill="#bfbfbf" /></svg>