<?xml version="1.0" standalone="no"?><!DOCTYPE svg PUBLIC "-//W3C//DTD SVG 1.1//EN" "http://www.w3.org/Graphics/SVG/1.1/DTD/svg11.dtd"><svg class="icon" width="200px" height="175.64px" viewBox="0 0 1166 1024" version="1.1" xmlns="http://www.w3.org/2000/svg"><path d="M851.317752 1023.997643a173.269241 173.269241 0 0 1-169.143783-138.202848v-4.714809h-196.548612v4.714809a172.67989 172.67989 0 0 1-338.287567 0v-4.714809H0V369.228502L250.179568 226.900197V101.3684A101.3684 101.3684 0 0 1 351.547968 0h713.998931a101.3684 101.3684 0 0 1 101.3684 101.3684V881.079986h-145.275061v4.714809a172.974566 172.974566 0 0 1-170.322486 138.202848z m0-285.835314a113.155423 113.155423 0 1 0 113.155423 113.155423 113.155423 113.155423 0 0 0-113.155423-113.155423z m-535.720205 0a113.155423 113.155423 0 1 0 113.155423 113.155423 113.155423 113.155423 0 0 0-113.155423-113.155423z m535.720205-58.935116a173.269241 173.269241 0 0 1 169.143784 138.202848v4.714809h85.750594V101.3684A41.843932 41.843932 0 0 0 1065.546899 58.935116H351.547968a41.843932 41.843932 0 0 0-41.843933 41.549257v161.187543L58.935116 404.000221v417.555298h86.339945v-4.71481a172.67989 172.67989 0 0 1 338.287567 0v4.71481h195.36991v-4.71481A172.974566 172.974566 0 0 1 851.317752 677.753835z" fill="#bfbfbf" /><path d="M249.884892 523.933182v-59.524467h178.868078V285.835313h59.524467v238.097869H249.884892z" fill="#bfbfbf" /></svg>