<?xml version="1.0" standalone="no"?><!DOCTYPE svg PUBLIC "-//W3C//DTD SVG 1.1//EN" "http://www.w3.org/Graphics/SVG/1.1/DTD/svg11.dtd"><svg class="icon" width="200px" height="200.00px" viewBox="0 0 1024 1024" version="1.1" xmlns="http://www.w3.org/2000/svg"><path d="M646.08 291.38a281.23 281.23 0 0 0-132.93 33.17 281.24 281.24 0 0 0-132.93-33.17c-156 0-249.25 126.47-249.25 282.48 0 181.47 180.47 385.07 295.48 385.07a183.42 183.42 0 0 0 86.69-21.63 183.41 183.41 0 0 0 86.69 21.63c115 0 295.48-203.59 295.48-385.07 0.02-156.01-93.22-282.48-249.23-282.48zM470.28 259q15.65 3.12 24.91 7.48t19.33 10.06c6-3.93 19.4-16.05 41.66-17.74a174.16 174.16 0 0 0 196-136c-44.69-40.17-90.29-56.69-147-44.87-36.15 7.54-63.62 34.61-73.36 48.52q-7.65 10.93-17.31 35.72-19.33-43.53-44.24-61.37c-26.47-19-56-36.55-128.41-36.55v79.53c76.21 0 128.42 40.45 128.42 115.22z" fill="#d4237a" /></svg>