<?xml version="1.0" standalone="no"?><!DOCTYPE svg PUBLIC "-//W3C//DTD SVG 1.1//EN" "http://www.w3.org/Graphics/SVG/1.1/DTD/svg11.dtd"><svg class="icon" width="200px" height="200.00px" viewBox="0 0 1024 1024" version="1.1" xmlns="http://www.w3.org/2000/svg"><path d="M242.068744 705.891238a66.270082 66.270082 0 0 1-58.759473-32.25144c-4.418005-7.510609-8.39421-14.137617-12.370415-18.997423A869.021671 869.021671 0 0 1 6.589053 193.402606a66.270082 66.270082 0 0 1 60.968476-70.246286l456.821762-53.016066a21.648227 21.648227 0 0 0 8.394211 0L639.247433 9.171779l7.95241-3.534404a66.270082 66.270082 0 0 1 88.360109 36.227645l94.545316 231.945285a78.198696 78.198696 0 0 1 3.092604 9.277812 66.270082 66.270082 0 0 1-48.59806 80.407699l-136.958169 34.018642a22.090027 22.090027 0 0 0-8.836011 4.418005l-353.440435 289.821157-8.39421 5.743407a65.828281 65.828281 0 0 1-34.902243 8.394211z m429.871929-662.700817a21.648227 21.648227 0 0 0-8.39421 0l-109.124735 64.50288a65.828281 65.828281 0 0 1-25.182631 7.952409L72.417335 166.894574a22.090027 22.090027 0 0 0-21.648227 23.415428 825.725217 825.725217 0 0 0 155.513791 437.82434c4.418005 6.185208 9.277811 13.695817 14.579418 22.531828a22.090027 22.090027 0 0 0 30.042437 7.952409l353.440436-291.588359a66.711882 66.711882 0 0 1 26.066232-13.254016l136.958169-34.018642a22.090027 22.090027 0 0 0 16.34662-26.949833l-91.452713-234.154289a22.090027 22.090027 0 0 0-20.322825-13.695817z" fill="#d4237a" /><path d="M295.526609 534.472626a22.090027 22.090027 0 0 1-17.672021-8.83601 634.425582 634.425582 0 0 1-94.545317-252.709912 22.487648 22.487648 0 0 1 44.180055-8.39421 592.89633 592.89633 0 0 0 88.360108 234.596089 22.090027 22.090027 0 0 1-17.672021 35.344043zM921.11618 1023.98763a66.270082 66.270082 0 0 1-60.084874-37.994847l-113.54274-241.664898-163.024401-270.823734a66.270082 66.270082 0 0 1 24.740831-88.360108l40.64565-22.973629a66.270082 66.270082 0 0 1 88.360109 25.182631l160.815398 284.519551 111.775538 237.688693a66.711882 66.711882 0 0 1-21.206426 81.2913l-29.600637 21.206426a64.94468 64.94468 0 0 1-10.603213 6.185208 66.270082 66.270082 0 0 1-28.275235 5.743407z m-296.006365-572.131705l163.024401 271.265534 114.868142 243.4321a22.090027 22.090027 0 0 0 29.600636 10.603213l33.135041-23.415429a22.531828 22.531828 0 0 0 7.068809-27.391634l-111.333737-237.688693-159.931797-282.752348a22.090027 22.090027 0 0 0-27.833435-9.277811h-3.534404l-39.320248 22.531827a22.090027 22.090027 0 0 0-8.394211 30.042437l-18.555623 11.928615z" fill="#d4237a" /></svg>