<?xml version="1.0" standalone="no"?><!DOCTYPE svg PUBLIC "-//W3C//DTD SVG 1.1//EN" "http://www.w3.org/Graphics/SVG/1.1/DTD/svg11.dtd"><svg class="icon" width="200px" height="200.00px" viewBox="0 0 1024 1024" version="1.1" xmlns="http://www.w3.org/2000/svg"><path d="M 872.879 683.62 c 0 23.078 -11.452 34.392 -34.392 34.392 c -22.974 0 -34.392 -11.313 -34.392 -34.392 V 511.664 c 0 -23.114 11.418 -34.392 34.392 -34.392 c 22.939 0 34.392 11.278 34.392 34.392 V 683.62 Z M 219.437 511.664 V 683.62 c 0 23.078 -11.419 34.392 -34.393 34.392 c -22.972 0 -34.391 -11.313 -34.391 -34.392 c 0.068 -1.271 0 -171.957 0 -171.957 c 0 -23.081 11.418 -34.392 34.391 -34.392 c 22.94 0 34.393 11.312 34.393 34.393 Z M 508.293 64.567 c -236.411 0 -426.424 193.249 -426.424 430.79 c 0 1.515 0.38 2.857 0.687 4.268 c -0.239 2.304 -0.687 4.572 -0.687 6.877 v 187.574 c 0 43.126 32.605 85.634 75.525 85.634 h 52.275 c 42.885 0 79.618 -42.508 79.618 -85.634 V 506.503 c -1.065 -63.625 -35.458 -98.017 -69.85 -98.017 H 167.85 C 219.437 270.92 317.8 133.352 507.364 133.352 c 189.156 0 296.732 137.568 348.32 275.134 c -2.683 -0.344 -51.588 0 -51.588 0 c -42.92 0 -68.784 60.049 -68.784 103.177 v 182.414 c 0 22.214 6.536 44.261 20.224 60.423 l -142.45 93.893 c -11.521 -13.859 -28.064 -23.182 -46.6 -23.182 l -71.913 -4.025 c -34.669 0 -68.784 33.946 -68.784 68.786 v 5.777 c 0 34.84 34.115 63.004 68.784 63.004 h 71.913 c 29.715 0 54.543 -19.191 61.079 -46.564 l 205.18 -132.478 h 26.482 c 42.886 0 82.437 -42.508 82.437 -85.634 V 495.703 C 933.997 264.865 739.818 64.567 508.293 64.567 Z m 0 0" fill="#d4237a" /></svg>