<?xml version="1.0" standalone="no"?><!DOCTYPE svg PUBLIC "-//W3C//DTD SVG 1.1//EN" "http://www.w3.org/Graphics/SVG/1.1/DTD/svg11.dtd"><svg class="icon" width="200px" height="200.00px" viewBox="0 0 1024 1024" version="1.1" xmlns="http://www.w3.org/2000/svg"><path d="M871.44 306.73c-106.74 30.18-228.6 47.4-359.44 47.4s-252.7-17.22-359.45-47.4a23.35 23.35 0 0 0-30 22.45V865a96 96 0 0 0 96 96h586.88a96 96 0 0 0 96-96V329.18a23.36 23.36 0 0 0-29.99-22.45zM604 566.59a31 31 0 0 1 0 62.06h-62v38.78h62a31 31 0 1 1 0 62.05h-62v52.36a31 31 0 0 1-62.06 0v-52.36h-62.08a31 31 0 1 1 0-62.05h62.05v-38.78h-62.05a31 31 0 0 1 0-62.06h33.69l-59.72-59.72A31 31 0 1 1 435.7 463l76.3 76.28L588.3 463a31 31 0 0 1 43.87 43.88l-59.73 59.72z" fill="#d4237a" /><path d="M805.43 65.36H200.48a77.88 77.88 0 0 0-77.88 77.88v91.26a23.46 23.46 0 0 0 16.11 22.5C248 292.06 376.23 312.65 512 312.65S776 292.06 885.29 257a23.46 23.46 0 0 0 16.11-22.5v-73.17a96 96 0 0 0-95.97-95.97z" fill="#d4237a" /></svg>