<?xml version="1.0" standalone="no"?><!DOCTYPE svg PUBLIC "-//W3C//DTD SVG 1.1//EN" "http://www.w3.org/Graphics/SVG/1.1/DTD/svg11.dtd"><svg class="icon" width="200px" height="200.00px" viewBox="0 0 1024 1024" version="1.1" xmlns="http://www.w3.org/2000/svg"><path d="M512 1024C230.4 1024 0 793.6 0 512S230.4 0 512 0s512 230.4 512 512S793.6 1024 512 1024zM512 25.6C243.2 25.6 25.6 243.2 25.6 512s217.6 486.4 486.4 486.4 486.4-217.6 486.4-486.4S780.8 25.6 512 25.6z" fill="#d4237a" /><path d="M512 260.5c-139 0-251.5 98.5-251.5 220 0 69.5 37 131.5 94.5 171.5l0 111.5 110-67c15 2.5 31 4 47 4 139 0 251.5-98.5 251.5-220S651 260.5 512 260.5zM386 512c-17.5 0-31.5-14-31.5-31.5 0-17.5 14-31.5 31.5-31.5 17.5 0 31.5 14 31.5 31.5C417.5 498 403.5 512 386 512zM512 512c-17.5 0-31.5-14-31.5-31.5 0-17.5 14-31.5 31.5-31.5s31.5 14 31.5 31.5C543.5 498 529.5 512 512 512zM638 512c-17.5 0-31.5-14-31.5-31.5 0-17.5 14-31.5 31.5-31.5 17.5 0 31.5 14 31.5 31.5C669 498 655 512 638 512z" fill="#d4237a" /></svg>