<?xml version="1.0" standalone="no"?><!DOCTYPE svg PUBLIC "-//W3C//DTD SVG 1.1//EN" "http://www.w3.org/Graphics/SVG/1.1/DTD/svg11.dtd"><svg class="icon" width="200px" height="200.00px" viewBox="0 0 1024 1024" version="1.1" xmlns="http://www.w3.org/2000/svg"><path d="M559.917949 620.964103H787.692308c12.471795-1.312821 19.692308-8.533333 21.005128-21.005129-1.312821-12.471795-8.533333-19.692308-21.005128-21.005128H548.102564c-3.282051 0-5.251282-2.625641-5.251282-5.907692l1.969231-20.348718s3.938462-26.25641-20.348718-27.569231h-2.625641c-17.723077 0-22.974359 10.502564-24.28718 22.974359 0 2.625641-1.969231 15.753846-3.282051 24.28718-0.65641 3.282051-3.938462 5.907692-7.220513 5.907692H252.061538c-8.533333 1.312821-15.097436 4.594872-18.379487 11.158974-3.282051 5.907692-3.282051 13.784615 0 19.692308 3.282051 6.564103 9.846154 10.502564 18.379487 11.158974h226.461539c1.969231 0 3.938462 1.969231 3.282051 4.594872-18.379487 57.764103-97.148718 98.461538-236.964102 122.748718-14.441026 6.564103-19.035897 17.066667-14.441026 32.820513 5.251282 9.846154 13.128205 15.097436 24.287179 15.097436 2.625641 0 5.907692 0 8.533334-0.65641 136.533333-28.882051 221.210256-74.174359 254.030769-137.189744 0.65641-1.312821 1.969231-1.969231 3.282051-1.969231s2.625641 0.65641 3.282052 1.969231c36.758974 65.641026 118.810256 109.620513 246.153846 132.594872 2.625641 0.65641 5.251282 0.65641 7.876923 0.65641 11.158974 0 19.035897-5.907692 22.974359-17.066667 3.282051-15.753846-2.625641-26.912821-16.410257-32.820513-116.184615-13.784615-192.328205-51.85641-228.430769-114.871794-0.65641-1.969231 1.312821-5.251282 3.938462-5.251282z m-40.697436-9.846154c-0.65641-1.312821-1.312821-3.282051-1.969231-4.594872 0.65641 0.65641 1.312821 1.312821 2.625641 1.969231 0 0.65641-0.65641 1.969231-0.65641 2.625641z" fill="#d4237a" /><path d="M471.302564 408.94359c5.907692 0 11.815385-1.969231 17.066667-6.564103 3.938462-2.625641 21.661538-18.379487 29.538461-24.94359 1.312821-0.65641 1.969231-1.312821 3.282052-1.31282s2.625641 0.65641 3.282051 1.31282c13.784615 12.471795 62.358974 55.794872 64.984615 58.420513 3.282051 2.625641 6.564103 4.594872 9.189744 5.251282 1.312821 0.65641 1.969231 2.625641 0 3.282052-32.164103 16.410256-71.548718 30.194872-122.748718 43.323077-14.441026 6.564103-18.379487 16.410256-11.815385 30.851282 4.594872 8.533333 11.815385 13.128205 21.661539 13.128205 2.625641 0 5.907692-0.65641 9.189743-1.312821 167.384615-51.2 223.179487-97.148718 269.128205-183.794872 9.189744-17.066667 12.471795-26.912821 9.189744-38.071794-3.282051-11.158974-10.502564-17.066667-21.005128-19.035898H595.364103c-2.625641 0-3.938462-2.625641-2.625641-5.251282 7.876923-12.471795 15.753846-24.94359 22.974359-37.415385 5.251282-9.189744 4.594872-22.317949-9.189744-28.225641-4.594872-1.312821-8.533333-1.969231-11.815385-1.96923-8.533333 0-14.441026 4.594872-19.035897 13.784615-30.851282 61.046154-93.210256 121.435897-117.497436 139.815385-8.533333 6.564103-12.471795 22.974359-2.625641 32.820512 3.938462 3.282051 9.846154 5.907692 15.753846 5.907693zM548.102564 341.333333c2.625641-3.282051 6.564103-7.876923 8.533333-10.502564 1.312821-1.312821 2.625641-1.969231 4.594872-1.969231h150.974359c6.564103 0 7.876923 4.594872 4.594872 9.189744-25.6 37.415385-53.825641 66.297436-85.333333 86.646154H630.153846c-1.312821 0-1.969231-1.312821-1.969231-2.625641 0.65641-5.907692-1.312821-11.158974-5.907692-16.410257-7.220513-5.907692-60.389744-49.230769-73.517949-59.733333-1.969231-0.65641-1.969231-3.282051-0.65641-4.594872zM246.810256 498.871795c3.938462 0 7.876923-0.65641 11.815385-2.625641 12.471795-6.564103 32.820513-15.753846 61.046154-28.225641 25.6-11.815385 43.979487-21.005128 55.794872-26.25641 0.65641 0 1.312821-0.65641 1.31282-0.656411 1.969231 0 3.938462 1.969231 3.938462 3.938462v90.584615c1.312821 11.815385 7.876923 18.379487 18.379487 21.005128h5.251282c12.471795-1.969231 19.035897-9.189744 21.005128-21.005128V238.933333c0-15.753846-7.876923-23.630769-23.630769-23.630769-12.471795 1.312821-19.692308 9.189744-21.005128 23.630769v149.005129c0 2.625641-1.312821 4.594872-3.938462 5.907692-11.815385 5.251282-30.194872 13.128205-55.138461 24.287179-38.071795 15.753846-63.671795 27.569231-78.112821 35.446154-13.128205 4.594872-19.035897 13.784615-17.066667 28.225641 0 1.969231 0.65641 3.282051 1.312821 5.251282 5.907692 7.876923 11.815385 11.815385 19.035897 11.815385z" fill="#d4237a" /><path d="M256.65641 305.230769c33.476923 33.476923 55.794872 56.451282 66.297436 68.923077 5.907692 5.907692 11.815385 8.533333 18.379487 8.533333 3.282051 0 6.564103-0.65641 10.502564-1.96923 2.625641-1.312821 5.251282-2.625641 7.220513-4.594872 5.907692-6.564103 6.564103-15.097436 0.656411-25.6-0.65641-1.312821-1.969231-3.282051-3.282052-3.938462L289.476923 278.974359c-5.907692-5.907692-11.815385-8.533333-17.723077-8.533333-3.938462 0-8.533333 1.312821-13.128205 3.938461-7.220513 5.907692-9.189744 14.441026-5.907692 25.6 1.312821 1.969231 2.625641 3.282051 3.938461 5.251282z" fill="#d4237a" /><path d="M512 0C229.087179 0 0 229.087179 0 512s229.087179 512 512 512 512-229.087179 512-512S794.912821 0 512 0z m0 984.615385c-260.594872 0-472.615385-212.020513-472.615385-472.615385S251.405128 39.384615 512 39.384615s472.615385 212.020513 472.615385 472.615385-212.020513 472.615385-472.615385 472.615385z" fill="#d4237a" /></svg>