<?xml version="1.0" standalone="no"?><!DOCTYPE svg PUBLIC "-//W3C//DTD SVG 1.1//EN" "http://www.w3.org/Graphics/SVG/1.1/DTD/svg11.dtd"><svg class="icon" width="200px" height="200.00px" viewBox="0 0 1024 1024" version="1.1" xmlns="http://www.w3.org/2000/svg"><path d="M1023.972359 108.417245c0-10.263761-1.883907-20.001543-4.548596-29.411867l-3.691065-11.887748c-16.250102-39.376823-54.93824-67.11763-100.169397-67.11763L108.444863 0c-20.650319 0-39.750329 6.082532-56.17337 16.101723l-1.422396-0.795109-2.336208 2.831488c-29.205159 19.426445-48.492434 52.572356-48.492434 90.279143l0 807.125601c0 59.871599 48.539506 108.409059 108.424408 108.409059l807.118438 0c59.871599 0 108.409059-48.538483 108.409059-108.409059l0-90.286306-0.013303 0c-0.079818-15.687284-12.803607-28.390607-28.5308-28.390607-15.70161 0-28.429493 12.703323-28.509311 28.390607l-0.00614 0 0 0.073678c0 0.026606-0.007163 0.038886-0.007163 0.073678 0 0.025583 0.007163 0.037862 0.007163 0.072655l0 84.349083c0 31.511691-25.552979 57.060577-57.0616 57.060577L394.374011 966.886211c-0.007163 0-0.007163 0-0.007163 0-0.032746 0-0.046049 0-0.073678 0l-44.069705 0c-0.020466 0-0.052189 0-0.073678 0-0.00614 0-0.00614 0-0.00614 0L114.154911 966.886211c-31.523971 0-57.060577-25.548886-57.060577-57.060577L57.094334 114.127294c0-8.735965 2.117221-16.910135 5.624091-24.302499L511.999988 335.187015 966.083927 105.919355c0.396019 2.704598 0.829901 5.395894 0.829901 8.207939l0 484.344127 0.00614 0c0 0.032746-0.013303 0.072655-0.013303 0.106424 0 15.759939 12.781094 28.542056 28.522614 28.542056 15.774265 0 28.544103-12.781094 28.544103-28.542056 0-0.033769-0.007163-0.073678-0.007163-0.106424l0.007163 0L1023.973382 108.417245 1023.972359 108.417245zM508.739735 271.143397 125.587288 57.066717l784.26494 0c6.05081 0 11.768021 1.195222 17.237593 2.936889L508.739735 271.143397 508.739735 271.143397zM686.773524 673.095002l0-0.260943c15.668865 0 28.377304-12.737092 28.377304-28.41619 0-15.673981-12.703323-28.375258-28.377304-28.375258l-131.204228-0.014326 127.705544-150.130276-0.181125-0.201591c11.734252-10.383488 12.762675-28.355815 2.38328-40.061414-10.43056-11.753695-28.369118-12.81691-40.08188-2.40477L525.043049 563.262524 401.879962 417.098583c-11.721973-10.41828-29.658484-9.349949-40.077787 2.410909-10.383488 11.7056-9.356089 29.670763 2.378164 40.055275l-0.173962 0.202615 134.517693 154.906046 0 1.354857-135.197168-0.106424 0 0.119727c-15.673981 0-28.377304 12.727882-28.377304 28.409027 0 15.667841 12.703323 28.376281 28.377304 28.376281l0 0.146333 135.197168 0.100284 0 57.621349-135.210471-0.105401 0 0.119727c-15.673981 0-28.382421 12.755512-28.382421 28.40391 0 15.70161 12.70844 28.417213 28.382421 28.417213l0 0.11154 135.210471 0.100284 0 66.818825 0.134053 0c0 15.640212 12.715603 28.350698 28.389584 28.350698 15.681144 0 28.395724-12.710486 28.395724-28.350698l0.134053 0 0-66.818825 131.176598 0.01228 0-0.224104c15.673981 0 28.383444-12.769838 28.383444-28.417213 0-15.70161-12.709463-28.40391-28.383444-28.40391l-131.176598-0.01535 0-57.621349L686.773524 673.095002 686.773524 673.095002zM686.773524 673.095002" fill="#d81e06" /></svg>