<?xml version="1.0" standalone="no"?><!DOCTYPE svg PUBLIC "-//W3C//DTD SVG 1.1//EN" "http://www.w3.org/Graphics/SVG/1.1/DTD/svg11.dtd"><svg class="icon" width="200px" height="200.00px" viewBox="0 0 1024 1024" version="1.1" xmlns="http://www.w3.org/2000/svg"><path d="M469.345 144.745c40.013 0 72.387-32.334 72.387-72.347S509.359 0.008 469.345 0.008c-39.897 0-72.35 32.375-72.35 72.39s32.375 72.347 72.35 72.347z m441.184-14.489c-39.896 0-72.35 32.373-72.35 72.387s32.377 72.388 72.35 72.388c40.014 0 72.387-32.373 72.387-72.388s-32.372-72.387-72.387-72.387zM710.376 171.57c40.014 0 72.35-32.372 72.35-72.347 0-40.013-32.336-72.387-72.35-72.387-39.896 0-72.387 32.373-72.387 72.387 0 39.974 32.372 72.347 72.387 72.347z m-406.17-39.946C304.206 58.998 245.326 0 172.586 0 99.965 0 41.086 58.88 41.086 131.623c0 72.741 58.879 131.699 131.502 131.699 72.74 0 131.619-58.958 131.619-131.7zM498.995 191C292.465 216.484 238.47 365.904 238.47 365.904c-54.113 203.499 152.416 219.408 193.731 273.404 59.51 77.823 7.796 167.46 0 222.596-22.214 155.803 150.13 171.005 209.64 158.798C888.149 969.976 899.333 637.064 872.59 483.27 817.729 168.79 498.995 191 498.995 191z" fill="#d81e06" /></svg>