<?xml version="1.0" standalone="no"?><!DOCTYPE svg PUBLIC "-//W3C//DTD SVG 1.1//EN" "http://www.w3.org/Graphics/SVG/1.1/DTD/svg11.dtd"><svg class="icon" width="200px" height="200.00px" viewBox="0 0 1024 1024" version="1.1" xmlns="http://www.w3.org/2000/svg"><path d="M945.453 689.878l-131.829-19.156-58.226-117.979-0.408-0.826c-2.281-4.622-6.955-7.293-11.911-7.93-0.141-0.019-0.283-0.026-0.425-0.042a18.335 18.335 0 0 0-1.123-0.092c-0.263-0.012-0.525-0.007-0.788-0.007s-0.525-0.005-0.788 0.007c-0.376 0.016-0.749 0.053-1.123 0.092-0.142 0.016-0.284 0.023-0.425 0.042-4.956 0.637-9.63 3.308-11.911 7.93l-58.635 118.806-130.916 19.022-0.912 0.133c-12.623 1.834-15.369 19.692-7.28 27.577l94.167 91.791-21.738 126.741-0.155 0.907c-1.024 5.969-0.23 11.58 4.243 16.054 5.418 5.419 13.388 6.054 19.995 2.58l115.479-60.71L855.407 955.1l0.815 0.429c5.286 2.779 11.389 3.086 16.656 0 6.853-4.014 8.852-11.232 7.582-18.634l-21.894-127.65c31.169-30.382 62.338-60.765 93.508-91.146l0.659-0.644c8.089-7.885 5.343-25.743-7.28-27.577zM829.896 791.111c-7.854 7.656-4.673 18.04-3.057 27.462l6.803 39.66 9.082 52.949-92.838-48.808c-10.396-5.466-18.287 0-27.139 4.653l-35.617 18.725-48.369 25.429 17.575-102.466c1.161-6.771 0.177-12.804-4.884-17.737l-7.025-6.848-28.814-28.088-39.85-38.843 106.551-15.482c9.24-1.343 12.327-10.865 15.86-18.024l17.983-36.437 24.585-49.815 47.248 95.735c4.432 8.979 13.309 8.851 21.646 10.062l40.211 5.843 55.875 8.119c-25.275 24.637-50.55 49.275-75.826 73.911zM480.827 893.514H161.454c-10.96 0-15.603-9.819-15.603-15.5l0.03-767.38c0-6.3 4.446-14.112 15.779-14.112H368.827c8.994 0 16.5-7.505 16.5-16.5s-7.506-16.5-16.5-16.5H152.695c-25.332 0-39.536 21.145-39.536 37.336 0 4.923-0.309 771.12-0.309 777.113 0 26.386 22.102 48.543 48.504 48.543h319.472c8.994 0 16.5-7.506 16.5-16.5s-7.505-16.5-16.499-16.5zM670.827 96.522h192.559c10.15 0 17.614 5.063 17.614 15.5v449.223c0 8.994 7.506 16.5 16.5 16.5s16.5-7.506 16.5-16.5V113.69c0-21.357-7.34-50.168-54.959-50.168H670.827c-8.994 0-16.5 7.505-16.5 16.5s7.506 16.5 16.5 16.5z" fill="#d81e06" /><path d="M812.194 292.908c14.908-5.661 25.535-20.087 25.535-36.956 0-21.792-17.729-39.521-39.521-39.521s-39.521 17.729-39.521 39.521c0 15.358 8.812 28.688 21.64 35.226-44.838 97.846-143.619 165.818-258.292 165.818-115.715 0-215.237-69.218-259.491-168.498 10.342-7.135 17.137-19.06 17.137-32.546 0-21.792-17.729-39.521-39.521-39.521s-39.521 17.729-39.521 39.521c0 19.215 13.787 35.263 31.986 38.792 47.197 114.597 158.989 195.17 289.411 195.17 131.116 0 243.403-81.434 290.158-197.006z" fill="#d81e06" /></svg>