<?xml version="1.0" standalone="no"?><!DOCTYPE svg PUBLIC "-//W3C//DTD SVG 1.1//EN" "http://www.w3.org/Graphics/SVG/1.1/DTD/svg11.dtd"><svg class="icon" width="200px" height="200.00px" viewBox="0 0 1024 1024" version="1.1" xmlns="http://www.w3.org/2000/svg"><path d="M572.6 455.8c-23 0-44.8 9.9-60.5 26.8-15.8-16.9-37.6-26.8-60.6-26.8-46.6 0-84.5 39.3-84.5 87.7 0 1.6 0.1 3.1 0.3 4.3v1.2c0 8.6 2.1 18 6.1 28 0.1 0.4 0.3 0.7 0.4 1 25.8 61.8 125 132.9 129.2 136.2 2.6 2 5.7 3 8.9 3s6.3-1 9-3.1c3.6-2.8 88.2-63.7 121.8-121.3 1.3-2 2.2-3.8 3.1-5.5 0.3-0.5 0.5-1 0.8-1.5 0.2-0.4 0.3-0.7 0.5-0.8 2-3.9 3.6-7.5 4.9-11.1 3.5-9.1 5.2-17.3 5.2-24.8 0-0.6 0-1.1-0.1-1.6 0.1-1 0.2-2.3 0.2-3.9-0.1-48.5-38.1-87.8-84.7-87.8z m-416.9 24.5H81.1c-12.6 0-20.8-13.2-15.2-24.5l134.3-272.7c14.3-29 43.8-47.4 76.1-47.4h471.5c32.3 0 61.8 18.4 76.1 47.4l134.4 272.7c5.5 11.3-2.6 24.5-15.2 24.5h-74.6v339.6c0 37.5-30.4 67.9-67.9 67.9h-577c-37.5 0-67.9-30.4-67.9-67.9V480.3z" fill="#d81e06" /></svg>