<?xml version="1.0" standalone="no"?><!DOCTYPE svg PUBLIC "-//W3C//DTD SVG 1.1//EN" "http://www.w3.org/Graphics/SVG/1.1/DTD/svg11.dtd"><svg class="icon" width="200px" height="200.00px" viewBox="0 0 1024 1024" version="1.1" xmlns="http://www.w3.org/2000/svg"><path d="M511.60014 1023.046555V0l10.487895 7.627561a738.443203 738.443203 0 0 0 397.10987 143.016759H940.650419v341.333334a547.277467 547.277467 0 0 1-423.806332 532.022346h-4.290502z" fill="#fdd23e" /><path d="M511.60014 1023.046555V0l-10.487896 7.627561a739.396648 739.396648 0 0 1-397.10987 143.016759H82.54986v341.333334a547.277467 547.277467 0 0 0 423.806332 532.022346h4.290502z" fill="#f8b62d" /><path d="M265.13459 489.594041l171.143389 182.58473a36.230912 36.230912 0 0 0 65.310987 0l257.90689-281.266294a32.893855 32.893855 0 0 0 16.208567-28.12663 32.417132 32.417132 0 0 0-33.8473-32.417132 31.463687 31.463687 0 0 0-29.080075 19.545624l-243.128491 266.487896h-2.860336L307.086173 445.735568a31.463687 31.463687 0 0 0-28.126629-17.638734 31.94041 31.94041 0 0 0-31.94041 32.417132 32.893855 32.893855 0 0 0 18.115456 29.080075z" fill="#ffffff" /></svg>