<?xml version="1.0" standalone="no"?><!DOCTYPE svg PUBLIC "-//W3C//DTD SVG 1.1//EN" "http://www.w3.org/Graphics/SVG/1.1/DTD/svg11.dtd"><svg class="icon" width="200px" height="174.60px" viewBox="0 0 1173 1024" version="1.1" xmlns="http://www.w3.org/2000/svg"><path d="M968.826 1024H213.961c-73.985 0-134.567-60.523-134.567-134.568V134.568C79.394 60.523 139.917 0 213.961 0h754.925c73.985 0 134.508 60.523 134.508 134.568v754.924c0 73.985-60.523 134.508-134.568 134.508z" fill="#f40009" /><path d="M366.042 148.983L171.37 286.351 366.042 429.02z m15.37 0V429.02l200.63-138.678zM171.368 306.306v278.011l191.338-138.975z m194.673 153.332v278.667L171.37 595.993z m15.37 0v278.667l190.98-139.334z m6.671 290.7L585.377 892.35l-1.012-280.334z m209.983-138.32V892.35l196.639-142.37z m11.973-12.034l191.695-141.299 1.013 279.62z m205.336-141.299v279.62l196.699-140.823z m4.706-14.356l191.993 139.988V305.353z m-4.706-295.346V429.02l196.699-142.014z m-12.628 0L599.078 290.997 802.747 429.02z" fill="#ffffff" /><path d="M466.596 239.827c-0.358 6.91-6.791 12.39-14.654 12.39-7.923 0-14.297-5.48-14.654-12.39-16.56 2.8-22.637 8.042-35.444 14.535a2.676 2.676 0 0 0-0.656 4.289l10.366 15.369 5.42-5.48v55.101c0 3.098 2.502 5.6 5.6 5.6h58.2c3.335 0 6.075-2.74 6.075-6.076V268.48l5.421 5.48 9.71-12.688c1.608-1.608 2.204-6.374 0.12-7.387-12.45-6.314-20.374-12.211-35.504-14.058zM279.13 326.739c0.239 0.417 4.11 6.731 11.497 7.029 6.017 0.179 9.889-3.753 10.485-4.408 0.715 0.655 5.6 4.646 12.51 3.693 6.373-0.893 9.888-5.42 10.484-6.255 0.536 0.358 6.314 3.932 11.258 1.49 5.361-2.681 6.017-9.948 5.004-14.238-0.596-2.501-1.608-3.335-4.527-7.505-0.656-0.953-3.455-5.779-9.055-15.488-2.263-3.872-5.004-8.697-8.16-14.297a290.588 290.588 0 0 1 3.275-13.999c1.311-5.123 2.085-7.386 1.013-10.246-0.357-0.893-0.715-1.49-3.753-6.255 2.204-4.527 2.085-8.518 0.239-9.769-1.132-0.774-2.74-0.298-3.039-0.238-2.62 0.774-4.467 4.05-4.467 8.22-1.31 0.06-4.05 0.417-6.732 2.264a13.806 13.806 0 0 0-3.514 3.515c-0.953-1.192-2.92-3.455-6.255-4.766a13.673 13.673 0 0 0-4.527-1.013c0.178-3.872-1.43-7.029-3.991-7.982-0.358-0.12-1.847-0.715-3.038-0.06-1.966 1.073-2.502 5.123-0.656 10.068-0.953 1.608-2.204 4.17-2.74 7.505-0.834 4.885 0.238 9.115 1.013 11.974 1.43 5.42 2.919 6.553 2.502 9.77-0.358 2.918-1.966 5.122-3.277 6.492-6.195 11.14-12.33 22.339-18.526 33.478-1.012 4.647 1.013 9.412 5.004 11.736 3.693 2.263 8.459 1.965 11.974-0.715z m-56.233 89.235c0.774-10.603 8.876-19.003 18.526-20.015 11.08-1.192 21.981 7.624 22.994 20.015 3.157 0.357 8.34 1.49 12.629 5.42 1.906 1.788 4.586 4.945 7.267 16.74 2.264 10.007 2.8 18.407 3.634 31.81-0.358 1.43-1.43 5.242-5.004 8.518-3.693 3.396-7.804 4.051-9.233 4.23H214.2c-1.549-0.238-6.255-1.132-10.246-5.242-3.515-3.574-4.468-7.625-4.766-9.234-0.119-2.323-0.953-26.448 6.017-39.256 1.072-1.906 2.978-5.48 7.029-8.518 3.991-2.979 8.161-4.051 10.663-4.468z" fill="#f40009" /><path d="M230.164 415.736h27.522s-2.74-11.974-13.761-11.974-13.76 11.974-13.76 11.974z" fill="#ffffff" /><path d="M333.16 636.5h6.493s-0.774-29.427 0-34.014c1.728-10.008 11.08-27.044 10.008-33.24-2.264-13.224-14.773-21.504-16.5-20.73s-16.502 17.275-21.029 29.487-12.748 29.249-13.999 29.487-14.475 2.025-26.508 6.493c-11.08 4.17-20.016 8.518-17.99 12.51s13.76 10.007 30.261 10.007c19.777 0 26.509-1.25 30.023-16.024 3.455-14.475 3.813-21.326 10.246-27.998 0.477-0.476 4.11-4.229 6.255-3.276 0 0 0.476 0.238 2.502 3.276l0.238 44.022z m75.236-3.514h87.27c0.715-0.179 1.846-0.536 2.978-1.49 1.847-1.548 2.383-3.574 2.502-4.229v-58.259c-0.357-0.834-1.072-2.264-2.502-3.515-2.263-1.965-4.884-2.204-5.778-2.263h-13.522c-0.894-1.966-2.502-2.979-6.255-8.22-1.37-1.907-3.574-2.384-5.004-2.98h-32.227c-1.132 0.596-2.979 1.013-3.753 2.503-2.74 5.242-5.242 6.612-6.016 8.756-5.898 0.239-11.855 0.477-17.752 0.775-0.655 0.119-2.026 0.536-3.276 1.727-1.668 1.668-1.966 3.694-2.026 4.23v57.723c0.12 0.655 0.655 2.382 2.264 3.752 1.25 1.013 2.442 1.37 3.097 1.49z m109.251 57.008l-5.242 6.731h10.722zM463.14 748.49c0.536-3.812 3.634-24.424 22.279-38.005 16.5-12.033 37.35-12.867 51.944-7.09 9.293 3.694 16.62 10.247 17.812 11.32 4.348 3.93 8.042 7.267 10.782 12.985 6.493 13.523 4.348 20.73 6.493 20.73-2.085-1.25-7.327-3.99-14.476-3.752-6.135 0.178-10.662 2.501-12.747 3.752-1.966-1.31-6.255-3.812-12.272-4.229a24.988 24.988 0 0 0-9.77 1.25v42.474c-0.595 1.787-1.786 4.468-4.11 6.91-4.527 4.706-12.032 7.268-19.121 5.123-9.531-2.919-13.284-12.867-13.165-17.275 0.06-2.025 0.953-3.693 0.953-3.693 0.238-0.358 2.204-3.932 5.242-3.813 2.74 0.12 4.587 3.157 5.242 5.004 0.894 2.442-0.178 3.336 0.775 5.004 1.548 2.86 6.671 4.17 9.233 2.502 1.31-0.894 3.931-5.064 2.978-3.753l1.251-38.78c-2.263-0.655-6.493-1.608-11.735-0.774a26.296 26.296 0 0 0-10.246 3.99c-2.025-1.19-6.97-3.752-13.76-3.752-6.732 0.179-11.497 2.68-13.582 3.872z m168.939-16.322v49.86c0 4.586 3.753 8.34 8.34 8.34h48.966c3.872 0 7.029-3.158 7.029-7.03v-50.991c0-2.92-2.383-5.362-5.361-5.362h-53.851c-2.8 0-5.123 2.324-5.123 5.183z m5.063-13.165h55.698c1.608 0 3.038-1.132 3.217-2.621 0.178-1.728-0.537-3.634-4.826-3.634h-54.089c-1.787 0-3.216 1.37-3.216 3.098-0.06 1.727 1.43 3.157 3.216 3.157z m2.502-6.255s7.208-14.475 21.028-14.475c25.973-0.06 28.772 14.475 28.772 14.475h-49.8z" fill="#f40009" /><path d="M667.226 703.159h-4.349a2.733 2.733 0 0 1-2.74-2.74v-5.481c0-1.49 1.192-2.74 2.74-2.74h4.349c1.49 0 2.74 1.191 2.74 2.74v5.48a2.733 2.733 0 0 1-2.74 2.74z m51.945-140.167c2.68-1.847 8.995-5.54 17.751-6.017 10.961-0.596 18.884 4.23 21.505 6.017l-4.23-15.19c-0.595-2.264-2.68-3.813-5.003-3.813h-21.505c-2.085 0-3.932 1.43-4.408 3.395l-4.11 15.608z m39.196 66.777c-2.68 1.847-8.995 5.54-17.751 6.016-10.961 0.596-18.884-4.229-21.505-6.016l4.23 15.19c0.595 2.264 2.68 3.813 5.003 3.813h21.505c2.085 0 3.931-1.43 4.408-3.396l4.11-15.607z" fill="#f40009" /><path d="M707.138 595.874a31.393 31.393 0 1 0 62.786 0 31.393 31.393 0 1 0-62.786 0z m149.4-39.614h-3.217a2.39 2.39 0 0 1-2.383-2.383v-11.735a2.39 2.39 0 0 1 2.383-2.383h3.217a2.39 2.39 0 0 1 2.383 2.383v11.735a2.39 2.39 0 0 1-2.383 2.383z m27.819 0h-3.455c-1.37 0-2.562-1.132-2.562-2.561V539.52c0-1.37 1.132-2.561 2.562-2.561h3.455c1.37 0 2.561 1.131 2.561 2.561v14.18c0 1.43-1.191 2.561-2.561 2.561z m28.057 0h-3.634a2.67 2.67 0 0 1-2.68-2.68v-11.2a2.67 2.67 0 0 1 2.68-2.68h3.634a2.67 2.67 0 0 1 2.68 2.68v11.2c-0.059 1.489-1.25 2.68-2.68 2.68z m2.204 85.482h-63.203a8.008 8.008 0 0 1-8.042-8.041v-66.004a3.203 3.203 0 0 1 3.217-3.216h73.39a2.924 2.924 0 0 1 2.918 2.919v66.062a8.263 8.263 0 0 1-8.28 8.28z" fill="#f40009" /><path d="M921.41 583.245s14.594 1.609 19.478 9.77c5.48 9.114 2.68 19.777-3.514 24.72-6.493 5.243-14.476 5.243-14.476 5.243v-7.506s13.76-3.99 12.51-13.522-13.999-11.02-13.999-11.02v-7.685z m-37.053-142.371c-1.37 2.442-1.31 5.42 0.119 7.863 3.336 5.719 10.782 13.88 19.36 19.539 11.437 7.506 20.73 6.016 20.73 6.016s14.237 12.987 18.526 14 5.48-1.252 5.48-4.766v-14s10.008-3.752 15.25-8.994 8.221-8.757 11.26-7.744 10.483 11.259 16.262 12.271 10.007-2.502 7.982-8.518-5.48-11.676-5.48-11.676 6.016-8.101 6.016-13.82c0-5.778-5.778-10.246-11.02-7.506s-11.02 11.974-14.476 11.974-10.722-9.65-17.751-12.808-8.519-4.17-8.519-4.17 1.728-15.011 0-17.275-8.22 0.239-12.271 3.277-11.02 10.246-11.02 10.246-12.51-0.239-26.985 9.769c-6.374 4.408-10.961 11.795-13.463 16.322z m-43.486-148.745a42.652 42.652 0 1 0 85.304 0 42.652 42.652 0 1 0-85.304 0z" fill="#f40009" /><path d="M851.117 226.007s10.723-2.443 18.526 0.774c10.246 4.23 11.259 18.526 11.259 18.526s-9.472 5.48-19.48-2.025-10.305-17.275-10.305-17.275z m55.817 5.123s-8.102-1.847-14 0.595c-7.743 3.217-8.518 14-8.518 14s7.208 4.17 14.774-1.49 7.744-13.105 7.744-13.105z m-189.431 98.23h43.783c0.358 0 0.536-0.477 0.179-0.655-1.906-1.073-6.076-3.336-11.14-5.183-7.029-2.502-8.995-4.23-8.995-4.23V304.4s8.995-7.565 15.012-12.212 15.726-17.394 15.726-28.116-3.99-27.879-3.99-27.879h-59.69s-4.229 23.828-2.025 33.836c3.753 12.747 15.012 21.98 20.73 27.223s8.519 7.506 8.519 7.506v15.25l-18.348 8.28c-0.536 0.238-0.357 1.072 0.239 1.072z" fill="#f40009" /><path d="M516.396 386.01l19.48-41.52 15.01 40.508 16.025 2.025v14.237l24.483-5.004-17.752-50.515 47.477 20.016-11.08 33.716 23.113-5.242 20.492-49.74 33.776 26.27-33.3 25.734 33.3-0.239 8.22 25.734h-21.266l-7.505 31.036 27.282 5.66 8.757 24.542-32.525 3.753-7.506 52.242-17.751 11.557-11.259-66.003-21.445-1.55-13.344 56.294-18.704 11.259-2.204-64.037-16.025-1.728-6.254-19.539-7.268 9.531-10.008 76.964-39.733-28.236 25.496-7.208-4.706-37.052-13.999 11.795-12.033-40.03 27.76-4.469-3.277-27.997-8.22-1.787-13.284-24.245z" fill="#ffffff" /><path d="M558.392 407.753L550.648 418l-3.99 28.772 24.006-1.43-7.268 15.906 24.007-8.519-5.361-24.96-16.144-4.527z m60.225 19.718l20.254-4.468 2.8 28.474-27.521 5.302z" fill="#f40009" /></svg>